Coordinates
version=1
nRows=13
nColumns=36
inDegrees=yes

Units are S.I. units (second, meters, Newtons, ...)
If the header above contains a line with 'inDegrees', this indicates whether rotational values are in degrees (yes) or radians (no).

endheader
time	pelvis_tilt	pelvis_list	pelvis_rotation	pelvis_tx	pelvis_ty	pelvis_tz	hip_flexion_r	hip_adduction_r	hip_rotation_r	knee_angle_r	knee_angle_r_beta	ankle_angle_r	subtalar_angle_r	mtp_angle_r	hip_flexion_l	hip_adduction_l	hip_rotation_l	knee_angle_l	knee_angle_l_beta	ankle_angle_l	subtalar_angle_l	mtp_angle_l	lumbar_extension	lumbar_bending	lumbar_rotation	arm_flex_r	arm_add_r	arm_rot_r	elbow_flex_r	pro_sup_r	arm_flex_l	arm_add_l	arm_rot_l	elbow_flex_l	pro_sup_l
      1.09000000	     -2.59679820	     -0.15029840	      5.28956585	      1.14914248	      1.12067237	     -0.20649250	     26.25277077	     -1.55177742	      2.23274794	     21.11442077	      0.36851616	      1.90424377	    -19.95681579	     -7.49999982	     -4.25649732	      3.56521084	      1.71004633	      3.54857411	      0.06193430	      8.07323004	     -1.31669378	     -7.49999982	     -8.74741359	      1.04996850	     -9.40431126	    -10.78538597	     -5.27484413	    -12.43103199	     40.31889985	     95.31901112	     -3.39690865	     -8.17064789	     -8.68011071	     37.82927863	     98.07856565
      1.10000000	     -2.72395476	      0.00529417	      5.21232933	      1.15756397	      1.11880711	     -0.20497158	     26.39596085	     -1.50284848	      2.33966485	     18.86481199	      0.32925308	      2.90439584	    -18.43274656	     -7.49999982	     -4.55005257	      3.61988768	      1.79042968	      3.54023314	      0.06178872	      9.25550304	     -1.19970198	     -7.49999982	     -9.07514802	      0.94264940	     -9.57876626	    -10.54666726	     -5.36236632	    -11.79466900	     40.52619901	     94.90028631	     -3.34480706	     -8.39155619	     -8.58203455	     38.52302218	     97.64868425
      1.11000000	     -2.86165972	      0.14942642	      5.13310673	      1.16617749	      1.11709161	     -0.20354877	     26.51028217	     -1.39521864	      2.32183302	     16.60219365	      0.28976294	      3.69905438	    -17.06204556	     -7.49999983	     -4.80189235	      3.65647914	      1.83528125	      3.64508324	      0.06361870	     10.61159455	     -1.13793931	     -7.49999983	     -9.33941933	      0.83669152	     -9.62857025	    -10.35662758	     -5.26581796	    -11.87016422	     40.64306994	     95.13157691	     -3.18362312	     -8.44418872	     -8.96739444	     39.03042520	     98.01772286
      1.12000000	     -2.93720231	      0.29662066	      5.03800646	      1.17511616	      1.11561333	     -0.20233118	     26.51547426	     -1.27383955	      2.00628048	     14.42261210	      0.25172207	      4.65305657	    -15.31777257	     -7.49999983	     -5.14974000	      3.69233928	      1.86726933	      3.73766069	      0.06523449	     11.93570810	     -1.26054953	     -7.49999983	     -9.66603179	      0.73492020	     -9.62004006	    -10.29805484	     -5.21370099	    -11.82364286	     41.07954335	     95.04913194	     -3.03563468	     -8.56298135	     -9.05720382	     39.58275527	     98.04443596
      1.13000000	     -2.98355608	      0.43275124	      4.93475888	      1.18438613	      1.11422055	     -0.20128427	     26.45320937	     -1.12196162	      1.46009302	     12.40035056	      0.21642695	      5.57785930	    -13.45044367	     -7.49999983	     -5.53468301	      3.71374354	      1.86576516	      3.86395566	      0.06743875	     13.24105928	     -1.48030072	     -7.49999983	     -9.97134716	      0.63387177	     -9.60742979	    -10.25153491	     -5.15712761	    -11.83822345	     41.50580539	     95.33948693	     -2.91890329	     -8.65965537	     -9.25971741	     40.09794171	     98.42421924
      1.14000000	     -3.01632841	      0.52163831	      4.79928848	      1.19393302	      1.11283470	     -0.20026301	     26.34474807	     -0.87397232	      0.80527372	     10.60345121	      0.18506514	      6.41432211	    -11.56955246	     -7.49999983	     -5.95541637	      3.69385130	      1.88581573	      3.98748240	      0.06959470	     14.44876983	     -1.87352247	     -7.49999983	    -10.24309004	      0.59245097	     -9.52257308	    -10.21778641	     -5.16150173	    -11.63202065	     41.85817074	     94.79431881	     -2.79441121	     -8.73844677	     -9.29454896	     40.56850698	     97.88882802
      1.15000000	     -3.03671204	      0.57718772	      4.65888424	      1.20368723	      1.11138864	     -0.19921761	     26.21910475	     -0.56228600	      0.01884113	      9.12706259	      0.15929729	      7.05197438	     -9.78622277	     -7.49999983	     -6.38801985	      3.63626305	      1.68180008	      4.15313239	      0.07248583	     15.61383751	     -1.99294972	     -7.49999983	    -10.48280727	      0.55310752	     -9.44283194	    -10.17530859	     -5.13690938	    -11.47140183	     42.22667558	     94.12110531	     -2.72837942	     -8.83652423	     -9.28376697	     40.99212798	     97.18380201
      1.16000000	     -3.21261381	      0.61982649	      4.46250553	      1.21348110	      1.10953363	     -0.19793661	     26.30175281	     -0.14934673	     -0.23186989	      8.04581312	      0.14042593	      7.01004521	     -9.08307307	     -7.49999983	     -6.64116670	      3.59491652	      1.59041128	      4.38134601	      0.07646891	     16.58538986	     -2.35076783	     -7.49999983	    -10.44224558	      0.51611150	     -9.31522825	    -10.09777497	     -5.08584100	    -11.51445947	     42.32861431	     94.18465168	     -2.67616851	     -8.90795782	     -9.35391958	     41.18510013	     97.23626766
      1.17000000	     -3.06860373	      0.50625044	      4.37732549	      1.22330130	      1.10819055	     -0.19697237	     26.00256806	      0.34513696	     -1.41401145	      7.27815271	      0.12702773	      7.59256699	     -6.82580080	     -7.49999983	     -7.24368003	      3.36220974	      1.48468207	      4.59839645	      0.08025716	     17.45975879	     -2.44380470	     -7.49999983	    -10.88361112	      0.75647468	     -9.25007495	    -10.00745080	     -5.06623611	    -11.71074851	     42.70900548	     94.58862347	     -2.61452155	     -8.88586180	     -9.60096086	     41.68768893	     97.62458135
      1.18000000	     -3.07686360	      0.35352524	      4.24248378	      1.23331851	      1.10651281	     -0.19583533	     25.90786811	      0.94751133	     -2.02710959	      6.90555580	      0.12052469	      7.50532782	     -5.66036164	     -7.49999983	     -7.64106266	      3.11820802	      1.47472469	      4.91633200	      0.08580618	     18.14663018	     -2.71623599	     -7.49999983	    -11.04711613	      1.01240091	     -9.12611432	     -9.90203051	     -5.07322884	    -11.80393688	     42.87067436	     94.88553370	     -2.58302601	     -8.85147705	     -9.79378788	     41.96104261	     97.89541459
      1.19000000	     -3.08449225	      0.14225838	      4.11645027	      1.24375208	      1.10477112	     -0.19479815	     25.84082765	      1.60651229	     -2.48692853	      6.91139756	      0.12062664	      7.19571202	     -4.74763114	     -7.49999983	     -8.01232450	      2.82328567	      1.48865366	      5.29593736	      0.09243154	     18.66487195	     -3.01655142	     -7.49999983	    -11.16506561	      1.34663978	     -9.02667876	     -9.79280646	     -5.12147153	    -11.89423848	     42.98618113	     95.08667595	     -2.56838316	     -8.78694465	     -9.95568623	     42.14481059	     98.07113775
      1.20000000	     -3.13250930	     -0.12247454	      3.98923672	      1.25490900	      1.10294441	     -0.19388478	     25.81710652	      2.30863205	     -2.75794776	      7.20838822	      0.12581011	      6.62894954	     -4.17539791	     -7.49999983	     -8.29894083	      2.48343827	      1.50074188	      5.77938877	      0.10086936	     19.06199294	     -3.33647357	     -7.49999983	    -11.13409910	      1.76401105	     -8.91270423	     -9.70759933	     -5.20484388	    -11.97048874	     43.05894068	     95.10385791	     -2.59274045	     -8.70732443	    -10.04609429	     42.24190429	     98.06422662
      1.21000000	     -3.13590168	     -0.42549046	      3.85127684	      1.26688775	      1.10116950	     -0.19312874	     25.75930329	      3.01597511	     -3.00870794	      7.79745226	      0.13609122	      5.99100974	     -3.62041420	     -7.49999984	     -8.61885681	      2.11377792	      1.52892118	      6.32492834	      0.11039082	     19.33295701	     -3.71901208	     -7.49999984	    -11.15780788	      2.24766131	     -8.83193899	     -9.61103733	     -5.33190118	    -12.10089227	     43.16967256	     95.09517332	     -2.66913256	     -8.57856873	    -10.15163398	     42.24295509	     98.03401989
